<svg xmlns="http://www.w3.org/2000/svg" viewBox="0 0 750 500"><g id="freepik--background-complete--inject-63"><path d="M123.21,252.35c0-6.49,3.35-10.52,8.12-10.52s8.13,4,8.13,10.52-3.35,10.53-8.13,10.53S123.21,258.85,123.21,252.35Zm14.73,0c0-5.78-2.69-9.13-6.61-9.13s-6.61,3.35-6.61,9.13,2.7,9.13,6.61,9.13S137.94,258.13,137.94,252.35Z" style="fill:#e0e0e0"></path><path d="M181.93,242v20.76h-1.51V243.34h-5.07V242Z" style="fill:#e0e0e0"></path><path d="M221.18,252.35c0-6.49,3.35-10.52,8.12-10.52s8.13,4,8.13,10.52-3.36,10.53-8.13,10.53S221.18,258.85,221.18,252.35Zm14.73,0c0-5.78-2.69-9.13-6.61-9.13s-6.61,3.35-6.61,9.13,2.7,9.13,6.61,9.13S235.91,258.13,235.91,252.35Z" style="fill:#ebebeb"></path><path d="M270.16,252.35c0-6.49,3.35-10.52,8.13-10.52s8.12,4,8.12,10.52-3.35,10.53-8.12,10.53S270.16,258.85,270.16,252.35Zm14.74,0c0-5.78-2.7-9.13-6.61-9.13s-6.61,3.35-6.61,9.13,2.69,9.13,6.61,9.13S284.9,258.13,284.9,252.35Z" style="fill:#e0e0e0"></path><path d="M327.86,242v20.76h-1.51V243.34h-5.07V242Z" style="fill:#e0e0e0"></path><path d="M368.13,252.35c0-6.49,3.35-10.52,8.13-10.52s8.12,4,8.12,10.52-3.35,10.53-8.12,10.53S368.13,258.85,368.13,252.35Zm14.74,0c0-5.78-2.7-9.13-6.61-9.13s-6.61,3.35-6.61,9.13,2.69,9.13,6.61,9.13S382.87,258.13,382.87,252.35Z" style="fill:#ebebeb"></path><path d="M417.12,252.35c0-6.49,3.35-10.52,8.12-10.52s8.13,4,8.13,10.52-3.35,10.53-8.13,10.53S417.12,258.85,417.12,252.35Zm14.73,0c0-5.78-2.69-9.13-6.61-9.13s-6.61,3.35-6.61,9.13,2.7,9.13,6.61,9.13S431.85,258.13,431.85,252.35Z" style="fill:#e0e0e0"></path><path d="M123.21,156.69c0-6.49,3.35-10.52,8.12-10.52s8.13,4,8.13,10.52-3.35,10.53-8.13,10.53S123.21,163.19,123.21,156.69Zm14.73,0c0-5.78-2.69-9.13-6.61-9.13s-6.61,3.35-6.61,9.13,2.7,9.14,6.61,9.14S137.94,162.48,137.94,156.69Z" style="fill:#e0e0e0"></path><path d="M181.93,146.32v20.75h-1.51V147.68h-5.07v-1.36Z" style="fill:#e0e0e0"></path><path d="M221.18,156.69c0-6.49,3.35-10.52,8.12-10.52s8.13,4,8.13,10.52-3.35,10.53-8.13,10.53S221.18,163.19,221.18,156.69Zm14.73,0c0-5.78-2.69-9.13-6.61-9.13s-6.61,3.35-6.61,9.13,2.7,9.14,6.61,9.14S235.91,162.48,235.91,156.69Z" style="fill:#ebebeb"></path><path d="M270.16,156.69c0-6.49,3.35-10.52,8.13-10.52s8.12,4,8.12,10.52-3.35,10.53-8.12,10.53S270.16,163.19,270.16,156.69Zm14.74,0c0-5.78-2.7-9.13-6.61-9.13s-6.61,3.35-6.61,9.13,2.69,9.14,6.61,9.14S284.9,162.48,284.9,156.69Z" style="fill:#e0e0e0"></path><path d="M327.87,146.32v20.75h-1.52V147.68h-5.07v-1.36Z" style="fill:#e0e0e0"></path><path d="M368.13,156.69c0-6.49,3.35-10.52,8.13-10.52s8.12,4,8.12,10.52-3.35,10.53-8.12,10.53S368.13,163.19,368.13,156.69Zm14.74,0c0-5.78-2.7-9.13-6.61-9.13s-6.61,3.35-6.61,9.13,2.69,9.14,6.61,9.14S382.87,162.48,382.87,156.69Z" style="fill:#ebebeb"></path><path d="M417.12,156.69c0-6.49,3.35-10.52,8.12-10.52s8.13,4,8.13,10.52-3.35,10.53-8.13,10.53S417.12,163.19,417.12,156.69Zm14.73,0c0-5.78-2.69-9.13-6.61-9.13s-6.61,3.35-6.61,9.13,2.7,9.14,6.61,9.14S431.85,162.48,431.85,156.69Z" style="fill:#e0e0e0"></path><path d="M123.21,203.25c0-6.5,3.35-10.53,8.12-10.53s8.13,4,8.13,10.53-3.35,10.52-8.13,10.52S123.21,209.74,123.21,203.25Zm14.73,0c0-5.78-2.69-9.13-6.61-9.13s-6.61,3.35-6.61,9.13,2.7,9.13,6.61,9.13S137.94,209,137.94,203.25Z" style="fill:#e0e0e0"></path><path d="M172.19,203.25c0-6.5,3.35-10.53,8.13-10.53s8.12,4,8.12,10.53-3.35,10.52-8.12,10.52S172.19,209.74,172.19,203.25Zm14.74,0c0-5.78-2.7-9.13-6.61-9.13s-6.61,3.35-6.61,9.13,2.69,9.13,6.61,9.13S186.93,209,186.93,203.25Z" style="fill:#ebebeb"></path><path d="M221.18,203.25c0-6.5,3.35-10.53,8.12-10.53s8.13,4,8.13,10.53-3.35,10.52-8.13,10.52S221.18,209.74,221.18,203.25Zm14.73,0c0-5.78-2.69-9.13-6.61-9.13s-6.61,3.35-6.61,9.13,2.7,9.13,6.61,9.13S235.91,209,235.91,203.25Z" style="fill:#e0e0e0"></path><path d="M279.9,192.87v20.75h-1.51V194.23h-5.07v-1.36Z" style="fill:#e0e0e0"></path><path d="M318.13,204.52c0-6.49,3.35-10.52,8.12-10.52s8.12,4,8.12,10.52-3.35,10.53-8.12,10.53S318.13,211,318.13,204.52Zm14.73,0c0-5.78-2.7-9.13-6.61-9.13s-6.61,3.35-6.61,9.13,2.7,9.13,6.61,9.13S332.86,210.3,332.86,204.52Z" style="fill:#ebebeb"></path><path d="M368.13,203.25c0-6.5,3.35-10.53,8.13-10.53s8.12,4,8.12,10.53-3.35,10.52-8.12,10.52S368.13,209.74,368.13,203.25Zm14.74,0c0-5.78-2.7-9.13-6.61-9.13s-6.61,3.35-6.61,9.13,2.69,9.13,6.61,9.13S382.87,209,382.87,203.25Z" style="fill:#e0e0e0"></path><path d="M426.86,192.87v20.75h-1.51V194.23h-5.08v-1.36Z" style="fill:#e0e0e0"></path><path d="M123.21,65.35c0-6.49,3.35-10.53,8.12-10.53s8.13,4,8.13,10.53-3.35,10.52-8.13,10.52S123.21,71.84,123.21,65.35Zm14.73,0c0-5.78-2.69-9.13-6.61-9.13s-6.61,3.35-6.61,9.13,2.7,9.13,6.61,9.13S137.94,71.13,137.94,65.35Z" style="fill:#e0e0e0"></path><path d="M181.93,55V75.73h-1.51V56.34h-5.07V55Z" style="fill:#e0e0e0"></path><path d="M221.18,65.35c0-6.49,3.35-10.53,8.12-10.53s8.13,4,8.13,10.53-3.35,10.52-8.13,10.52S221.18,71.84,221.18,65.35Zm14.73,0c0-5.78-2.69-9.13-6.61-9.13s-6.61,3.35-6.61,9.13,2.7,9.13,6.61,9.13S235.91,71.13,235.91,65.35Z" style="fill:#ebebeb"></path><path d="M270.16,65.35c0-6.49,3.35-10.53,8.13-10.53s8.12,4,8.12,10.53-3.35,10.52-8.12,10.52S270.16,71.84,270.16,65.35Zm14.74,0c0-5.78-2.7-9.13-6.61-9.13s-6.61,3.35-6.61,9.13,2.69,9.13,6.61,9.13S284.9,71.13,284.9,65.35Z" style="fill:#e0e0e0"></path><path d="M327.87,55V75.73h-1.52V56.34h-5.07V55Z" style="fill:#e0e0e0"></path><path d="M368.13,65.35c0-6.49,3.35-10.53,8.13-10.53s8.12,4,8.12,10.53S381,75.87,376.26,75.87,368.13,71.84,368.13,65.35Zm14.74,0c0-5.78-2.7-9.13-6.61-9.13s-6.61,3.35-6.61,9.13,2.69,9.13,6.61,9.13S382.87,71.13,382.87,65.35Z" style="fill:#ebebeb"></path><path d="M417.12,65.35c0-6.49,3.35-10.53,8.12-10.53s8.13,4,8.13,10.53S430,75.87,425.24,75.87,417.12,71.84,417.12,65.35Zm14.73,0c0-5.78-2.69-9.13-6.61-9.13s-6.61,3.35-6.61,9.13,2.7,9.13,6.61,9.13S431.85,71.13,431.85,65.35Z" style="fill:#e0e0e0"></path><path d="M123.21,111.9c0-6.49,3.35-10.52,8.12-10.52s8.13,4,8.13,10.52-3.35,10.53-8.13,10.53S123.21,118.39,123.21,111.9Zm14.73,0c0-5.78-2.69-9.13-6.61-9.13s-6.61,3.35-6.61,9.13,2.7,9.13,6.61,9.13S137.94,117.68,137.94,111.9Z" style="fill:#e0e0e0"></path><path d="M172.19,111.9c0-6.49,3.35-10.52,8.13-10.52s8.12,4,8.12,10.52-3.35,10.53-8.12,10.53S172.19,118.39,172.19,111.9Zm14.74,0c0-5.78-2.7-9.13-6.61-9.13s-6.61,3.35-6.61,9.13,2.69,9.13,6.61,9.13S186.93,117.68,186.93,111.9Z" style="fill:#ebebeb"></path><path d="M221.18,111.9c0-6.49,3.35-10.52,8.12-10.52s8.13,4,8.13,10.52-3.35,10.53-8.13,10.53S221.18,118.39,221.18,111.9Zm14.73,0c0-5.78-2.69-9.13-6.61-9.13s-6.61,3.35-6.61,9.13,2.7,9.13,6.61,9.13S235.91,117.68,235.91,111.9Z" style="fill:#e0e0e0"></path><path d="M279.9,101.52v20.76h-1.51V102.89h-5.07v-1.37Z" style="fill:#e0e0e0"></path><path d="M318.13,113.18c0-6.5,3.35-10.53,8.12-10.53s8.12,4,8.12,10.53S331,123.7,326.25,123.7,318.13,119.67,318.13,113.18Zm14.73,0c0-5.79-2.7-9.13-6.61-9.13s-6.61,3.34-6.61,9.13,2.7,9.13,6.61,9.13S332.86,119,332.86,113.18Z" style="fill:#ebebeb"></path><path d="M368.13,111.9c0-6.49,3.35-10.52,8.13-10.52s8.12,4,8.12,10.52-3.35,10.53-8.12,10.53S368.13,118.39,368.13,111.9Zm14.74,0c0-5.78-2.7-9.13-6.61-9.13s-6.61,3.35-6.61,9.13,2.69,9.13,6.61,9.13S382.87,117.68,382.87,111.9Z" style="fill:#e0e0e0"></path><path d="M426.86,101.52v20.76h-1.51V102.89h-5.08v-1.37Z" style="fill:#e0e0e0"></path><path d="M466.48,252.35c0-6.49,3.35-10.52,8.12-10.52s8.13,4,8.13,10.52-3.35,10.53-8.13,10.53S466.48,258.85,466.48,252.35Zm14.73,0c0-5.78-2.69-9.13-6.61-9.13s-6.61,3.35-6.61,9.13,2.7,9.13,6.61,9.13S481.21,258.13,481.21,252.35Z" style="fill:#ebebeb"></path><path d="M515.47,252.35c0-6.49,3.34-10.52,8.12-10.52s8.12,4,8.12,10.52-3.35,10.53-8.12,10.53S515.47,258.85,515.47,252.35Zm14.73,0c0-5.78-2.7-9.13-6.61-9.13s-6.61,3.35-6.61,9.13,2.7,9.13,6.61,9.13S530.2,258.13,530.2,252.35Z" style="fill:#e0e0e0"></path><path d="M573.17,242v20.76h-1.52V243.34h-5.07V242Z" style="fill:#e0e0e0"></path><path d="M613.44,252.35c0-6.49,3.34-10.52,8.12-10.52s8.12,4,8.12,10.52-3.35,10.53-8.12,10.53S613.44,258.85,613.44,252.35Zm14.73,0c0-5.78-2.7-9.13-6.61-9.13s-6.61,3.35-6.61,9.13,2.7,9.13,6.61,9.13S628.17,258.13,628.17,252.35Z" style="fill:#ebebeb"></path><path d="M466.48,156.69c0-6.49,3.35-10.52,8.12-10.52s8.13,4,8.13,10.52-3.35,10.53-8.13,10.53S466.48,163.19,466.48,156.69Zm14.73,0c0-5.78-2.69-9.13-6.61-9.13s-6.61,3.35-6.61,9.13,2.7,9.14,6.61,9.14S481.21,162.48,481.21,156.69Z" style="fill:#ebebeb"></path><path d="M515.47,156.69c0-6.49,3.34-10.52,8.12-10.52s8.12,4,8.12,10.52-3.35,10.53-8.12,10.53S515.47,163.19,515.47,156.69Zm14.73,0c0-5.78-2.7-9.13-6.61-9.13s-6.61,3.35-6.61,9.13,2.7,9.14,6.61,9.14S530.2,162.48,530.2,156.69Z" style="fill:#e0e0e0"></path><path d="M573.17,146.32v20.75h-1.52V147.68h-5.07v-1.36Z" style="fill:#e0e0e0"></path><path d="M613.44,156.69c0-6.49,3.35-10.52,8.12-10.52s8.12,4,8.12,10.52-3.35,10.53-8.12,10.53S613.44,163.19,613.44,156.69Zm14.73,0c0-5.78-2.7-9.13-6.61-9.13s-6.61,3.35-6.61,9.13,2.7,9.14,6.61,9.14S628.17,162.48,628.17,156.69Z" style="fill:#ebebeb"></path><path d="M466.48,203.25c0-6.5,3.35-10.53,8.12-10.53s8.13,4,8.13,10.53-3.35,10.52-8.13,10.52S466.48,209.74,466.48,203.25Zm14.74,0c0-5.78-2.7-9.13-6.62-9.13s-6.61,3.35-6.61,9.13,2.7,9.13,6.61,9.13S481.22,209,481.22,203.25Z" style="fill:#e0e0e0"></path><path d="M525.2,192.87v20.75h-1.51V194.23h-5.07v-1.36Z" style="fill:#e0e0e0"></path><path d="M563.43,204.52c0-6.49,3.35-10.52,8.12-10.52s8.13,4,8.13,10.52-3.36,10.53-8.13,10.53S563.43,211,563.43,204.52Zm14.73,0c0-5.78-2.69-9.13-6.61-9.13s-6.61,3.35-6.61,9.13,2.7,9.13,6.61,9.13S578.16,210.3,578.16,204.52Z" style="fill:#ebebeb"></path><path d="M613.44,203.25c0-6.5,3.35-10.53,8.12-10.53s8.12,4,8.12,10.53-3.35,10.52-8.12,10.52S613.44,209.74,613.44,203.25Zm14.73,0c0-5.78-2.7-9.13-6.61-9.13s-6.61,3.35-6.61,9.13,2.7,9.13,6.61,9.13S628.17,209,628.17,203.25Z" style="fill:#e0e0e0"></path><path d="M466.48,65.35c0-6.49,3.35-10.53,8.12-10.53s8.13,4,8.13,10.53-3.35,10.52-8.13,10.52S466.48,71.84,466.48,65.35Zm14.73,0c0-5.78-2.69-9.13-6.61-9.13S468,59.57,468,65.35s2.7,9.13,6.61,9.13S481.21,71.13,481.21,65.35Z" style="fill:#ebebeb"></path><path d="M515.47,65.35c0-6.49,3.34-10.53,8.12-10.53s8.12,4,8.12,10.53-3.35,10.52-8.12,10.52S515.47,71.84,515.47,65.35Zm14.73,0c0-5.78-2.7-9.13-6.61-9.13S517,59.57,517,65.35s2.7,9.13,6.61,9.13S530.2,71.13,530.2,65.35Z" style="fill:#e0e0e0"></path><path d="M573.17,55V75.73h-1.52V56.34h-5.07V55Z" style="fill:#e0e0e0"></path><path d="M613.44,65.35c0-6.49,3.35-10.53,8.12-10.53s8.12,4,8.12,10.53-3.35,10.52-8.12,10.52S613.44,71.84,613.44,65.35Zm14.73,0c0-5.78-2.7-9.13-6.61-9.13S615,59.57,615,65.35s2.7,9.13,6.61,9.13S628.17,71.13,628.17,65.35Z" style="fill:#ebebeb"></path><path d="M466.48,111.9c0-6.49,3.35-10.52,8.12-10.52s8.13,4,8.13,10.52-3.35,10.53-8.13,10.53S466.48,118.39,466.48,111.9Zm14.74,0c0-5.78-2.7-9.13-6.62-9.13S468,106.12,468,111.9s2.7,9.13,6.61,9.13S481.22,117.68,481.22,111.9Z" style="fill:#e0e0e0"></path><path d="M525.2,101.52v20.76h-1.51V102.89h-5.07v-1.37Z" style="fill:#e0e0e0"></path><path d="M563.43,113.18c0-6.5,3.35-10.53,8.12-10.53s8.13,4,8.13,10.53-3.36,10.52-8.13,10.52S563.43,119.67,563.43,113.18Zm14.73,0c0-5.79-2.69-9.13-6.61-9.13s-6.61,3.34-6.61,9.13,2.7,9.13,6.61,9.13S578.16,119,578.16,113.18Z" style="fill:#ebebeb"></path><path d="M613.44,111.9c0-6.49,3.35-10.52,8.12-10.52s8.12,4,8.12,10.52-3.35,10.53-8.12,10.53S613.44,118.39,613.44,111.9Zm14.73,0c0-5.78-2.7-9.13-6.61-9.13S615,106.12,615,111.9s2.7,9.13,6.61,9.13S628.17,117.68,628.17,111.9Z" style="fill:#e0e0e0"></path></g><g id="freepik--Device--inject-63"><rect x="174.02" y="135.22" width="402.04" height="265.86" rx="14.57" style="fill:#263238"></rect><path d="M157.21,381.42H592.79a0,0,0,0,1,0,0v5.47a17.8,17.8,0,0,1-17.8,17.8H175a17.8,17.8,0,0,1-17.8-17.8v-5.47a0,0,0,0,1,0,0Z" style="fill:#263238"></path><rect x="184.82" y="145.79" width="379.33" height="224.52" style="fill:#e0e0e0"></rect><polygon points="335.41 381.42 340.81 390.02 416.87 390.02 421.89 381.42 335.41 381.42" style="fill:#455a64"></polygon><rect x="192.63" y="153.39" width="364.48" height="216.2" rx="3.27" style="fill:#455a64"></rect><rect x="192.63" y="169.23" width="364.48" height="200.36" style="fill:#fafafa"></rect><path d="M222.52,161.74a2.91,2.91,0,1,1-2.91-2.92A2.91,2.91,0,0,1,222.52,161.74Z" style="fill:#6D7FCC"></path><path d="M204.88,161.74a2.91,2.91,0,1,1-2.91-2.92A2.91,2.91,0,0,1,204.88,161.74Z" style="fill:#6D7FCC"></path><path d="M213.35,161.74a2.91,2.91,0,1,1-2.91-2.92A2.91,2.91,0,0,1,213.35,161.74Z" style="fill:#6D7FCC"></path><path d="M465.25,252.68l1.13-.09c.37,0,.83-.12,1.38-.21a14.6,14.6,0,0,0,1.83-.56,12.27,12.27,0,0,0,4.44-2.95,12.75,12.75,0,0,0,2-2.76,12.46,12.46,0,0,0,1.23-3.68,12.17,12.17,0,0,0-10.85-14.16c-1-.07-2-.06-3-.06H453.8l-14.16,0-155.14.07A12.12,12.12,0,0,0,272.68,238a12.25,12.25,0,0,0,.15,5.39,12.08,12.08,0,0,0,11.84,9h5.38l41.19,0,69.75.05,47,.09,12.78,0,3.33,0,1.13,0s-.38,0-1.13,0l-3.33,0-12.78.05-47,.08-69.75.06H284.67a12.34,12.34,0,0,1-5.37-1.13,12.55,12.55,0,0,1-7-8.3,12.46,12.46,0,0,1,2.19-10.77,12.61,12.61,0,0,1,10-4.93l155.14.08,14.16,0h9.63c1,0,2,0,3,.07a12.45,12.45,0,0,1,9.75,18.21,13.52,13.52,0,0,1-2.05,2.79,12.57,12.57,0,0,1-4.52,2.94,14.52,14.52,0,0,1-1.86.54c-.55.08-1,.16-1.38.19C465.64,252.68,465.25,252.68,465.25,252.68Z" style="fill:#263238"></path><path d="M465.25,252.68H441.6V228.06h23.65a12.31,12.31,0,0,1,12.31,12.31h0A12.31,12.31,0,0,1,465.25,252.68Z" style="fill:#6D7FCC"></path><path d="M461.12,238.05c-.05,0-.05-.41-.25-1.12a4.64,4.64,0,0,0-1.72-2.45,4.46,4.46,0,1,0-4.23,7.75,4.54,4.54,0,0,0,4.24-.6,4.68,4.68,0,0,0,1.71-2.46c.2-.7.2-1.12.25-1.12a.86.86,0,0,1,0,.31,2.94,2.94,0,0,1-.08.86,4.69,4.69,0,0,1-1.69,2.7,4.88,4.88,0,0,1-4.63.76,4.91,4.91,0,0,1,0-9.25,4.85,4.85,0,0,1,4.63.75,4.72,4.72,0,0,1,1.69,2.7,3,3,0,0,1,.08.87A.78.78,0,0,1,461.12,238.05Z" style="fill:#fff"></path><path d="M467.41,245.88a19.86,19.86,0,0,1-3.8-2.24A19,19,0,0,1,460.1,241a36.35,36.35,0,0,1,7.31,4.91Z" style="fill:#fff"></path><path d="M287.47,247.29a47.44,47.44,0,0,1-.26-7,47.33,47.33,0,0,1,.26-7,47.33,47.33,0,0,1,.26,7A47.44,47.44,0,0,1,287.47,247.29Z" style="fill:#455a64"></path><rect x="257.53" y="295.14" width="59.09" height="57.17" style="fill:#e0e0e0"></rect><polygon points="262.12 347.42 278.46 318 291.83 336.8 299.96 326.82 312.04 347.42 262.12 347.42" style="fill:#6D7FCC"></polygon><path d="M297.53,312.28a4.26,4.26,0,1,1-4.25-4.25A4.25,4.25,0,0,1,297.53,312.28Z" style="fill:#6D7FCC"></path><path d="M312,347.58s0-.09,0-.24,0-.39,0-.66q0-.92,0-2.58c0-2.26,0-5.54-.07-9.7,0-8.35-.07-20.25-.12-34.52l.24.24-49.92,0c-.07.06.53-.53.28-.27h0v6.45q0,3.22,0,6.37V325c0,8,0,15.57,0,22.54l-.24-.25,36.09.13,10.19.06,2.7,0h.7l.24,0h-.21l-.68,0-2.65,0-10.13.07-36.25.12h-.25v-.24c0-7,0-14.54,0-22.54V312.72q0-3.15,0-6.37V299.9h0c-.25.24.35-.36.29-.29l49.92,0h.25v.24c-.06,14.34-.1,26.28-.13,34.67,0,4.14-.05,7.4-.06,9.65,0,1.09,0,1.93,0,2.53,0,.27,0,.48,0,.64A.85.85,0,0,1,312,347.58Z" style="fill:#455a64"></path><rect x="351.59" y="295.14" width="59.09" height="57.17" style="fill:#6D7FCC"></rect><polygon points="356.17 347.42 372.52 318 385.89 336.8 394.01 326.82 406.1 347.42 356.17 347.42" style="fill:#e0e0e0"></polygon><path d="M391.58,312.28a4.25,4.25,0,1,1-4.25-4.25A4.25,4.25,0,0,1,391.58,312.28Z" style="fill:#e0e0e0"></path><path d="M406.1,347.58s0-.09,0-.24,0-.39,0-.66q0-.92,0-2.58c0-2.26,0-5.54-.06-9.7,0-8.35-.07-20.25-.12-34.52l.24.24-49.92,0,.27-.27h0v12.82q0,6.3,0,12.32c0,8,0,15.57,0,22.54l-.25-.25,36.1.13,10.18.06,2.7,0h.7l.25,0h-.22l-.67,0-2.66,0-10.12.07-36.26.12h-.24v-.24c0-7,0-14.54,0-22.54q0-6,0-12.32V299.9h0c-.25.24.34-.36.29-.29l49.92,0h.24v.24c0,14.34-.09,26.28-.12,34.67,0,4.14-.05,7.4-.07,9.65,0,1.09,0,1.93,0,2.53,0,.27,0,.48,0,.64A1.66,1.66,0,0,1,406.1,347.58Z" style="fill:#455a64"></path><rect x="445.65" y="295.14" width="59.09" height="57.17" style="fill:#e0e0e0"></rect><polygon points="450.23 347.42 466.57 318 479.94 336.8 488.07 326.82 500.15 347.42 450.23 347.42" style="fill:#6D7FCC"></polygon><path d="M485.64,312.28a4.26,4.26,0,1,1-4.25-4.25A4.25,4.25,0,0,1,485.64,312.28Z" style="fill:#6D7FCC"></path><path d="M500.16,347.58a1.35,1.35,0,0,1,0-.24c0-.17,0-.39,0-.66q0-.92,0-2.58c0-2.26,0-5.54-.06-9.7,0-8.35-.08-20.25-.13-34.52l.25.24-49.93,0c-.06.06.53-.53.28-.27h0v12.82q0,6.3,0,12.32c0,8,0,15.57,0,22.54l-.24-.25,36.1.13,10.18.06,2.7,0h.7l.25,0h-.22l-.68,0-2.65,0-10.13.07-36.25.12H450v-.24c0-7,0-14.54,0-22.54q0-6,0-12.32V299.9h0c-.25.24.34-.36.28-.29l49.93,0h.24v.24c0,14.34-.1,26.28-.13,34.67,0,4.14,0,7.4-.06,9.65,0,1.09,0,1.93,0,2.53,0,.27,0,.48,0,.64S500.16,347.58,500.16,347.58Z" style="fill:#455a64"></path><rect x="337.45" y="199.12" width="74.84" height="6.27" style="fill:#455a64"></rect><path d="M572.61,381.42c0,.15-89.24.26-199.29.26s-199.3-.11-199.3-.26,89.22-.26,199.3-.26S572.61,381.28,572.61,381.42Z" style="fill:#455a64"></path></g><g id="freepik--Plants--inject-63"><path d="M117.11,271.94c-5.66.92-8.19,7.88-7.7,13.59s2.85,11.31,2.22,17c-.8,7.24-6.27,13.36-6.91,20.62-.75,8.56,5.3,16.15,7.11,24.55.88,4.09.75,8.41,2.27,12.3a15.38,15.38,0,0,0,29.71-5.3c.12-6.57-3.93-12.76-3.44-19.32.36-4.84,3.2-9.44,2.6-14.26-.73-5.73-6-9.8-7.92-15.27s-.07-11.5-.72-17.25c-1.16-10.31-6.88-17.49-17.22-16.67" style="fill:#6D7FCC"></path><path d="M88.19,321.86c-1,9.55,3.26,20.79,8.17,29a45.52,45.52,0,0,0,21.38,18.56c1,.42,2.25.77,3.09.09a3.1,3.1,0,0,0,.78-2.45,46.9,46.9,0,0,0-33.42-45.24" style="fill:#6D7FCC"></path><path d="M88.19,321.86c-1,9.55,3.26,20.79,8.17,29a45.52,45.52,0,0,0,21.38,18.56c1,.42,2.25.77,3.09.09a3.1,3.1,0,0,0,.78-2.45,46.9,46.9,0,0,0-33.42-45.24" style="opacity:0.2"></path><path d="M129.8,389.43a2.35,2.35,0,0,1-.27-.53l-.69-1.57c-.57-1.36-1.43-3.32-2.52-5.73a202.11,202.11,0,0,0-9.48-18.36A205,205,0,0,0,105.49,346c-1.56-2.14-2.85-3.85-3.76-5l-1-1.36a2.31,2.31,0,0,1-.33-.5,2.46,2.46,0,0,1,.42.43l1.11,1.3c.95,1.13,2.29,2.81,3.9,4.92A175.85,175.85,0,0,1,117.3,363a174.66,174.66,0,0,1,9.37,18.48c1,2.44,1.86,4.42,2.37,5.82.24.65.43,1.18.59,1.6A2.21,2.21,0,0,1,129.8,389.43Z" style="fill:#263238"></path><path d="M123.65,298.37a6.24,6.24,0,0,1,.1.92c0,.65.11,1.52.19,2.63.15,2.33.36,5.63.63,9.68.51,8.17,1.24,19.46,2.11,31.92s1.74,23.75,2.38,31.92c.31,4,.56,7.33.74,9.67.07,1.1.13,2,.18,2.63a5.82,5.82,0,0,1,0,.92,6.06,6.06,0,0,1-.13-.91c-.07-.65-.16-1.52-.28-2.62l-.91-9.66c-.74-8.16-1.66-19.44-2.54-31.91s-1.54-23.76-2-31.94c-.19-4.05-.34-7.35-.45-9.69q-.06-1.67-.09-2.64A5.89,5.89,0,0,1,123.65,298.37Z" style="fill:#263238"></path><path d="M114.86,375.81h23.92v17.56a11.48,11.48,0,0,1-11.48,11.48h0A11.49,11.49,0,0,1,115.83,394Z" style="fill:#455a64"></path><path d="M645.38,375.53A18.75,18.75,0,0,1,657,374.12c2.11.35,4.31,1,5.74,2.56s1.71,4.37.06,5.73a5.53,5.53,0,0,1-3.62.92c-3.07,0-6.48-.58-8.93,1.27-1.4,1-2.33,2.81-4,3.33a4,4,0,0,1-4.35-1.94,6.73,6.73,0,0,1-.49-5A7.61,7.61,0,0,1,645.38,375.53Z" style="fill:#6D7FCC"></path><path d="M637.29,359.9c2.16,3.09,6.36,2.07,8.3.18s2.77-4.61,3.52-7.22c1.72-5.94,3.44-12.18,2.17-18.24a10.14,10.14,0,0,0-2.33-5,5.26,5.26,0,0,0-5-1.67c-2.12.56-3.43,2.63-4.39,4.6a43.56,43.56,0,0,0-4.29,18.67c0,3,.34,6.16,2,8.64" style="fill:#6D7FCC"></path><path d="M631.35,364.33A11.23,11.23,0,0,0,633.1,354a19.85,19.85,0,0,0-6.12-8.88,33,33,0,0,0-11-6.47,11.66,11.66,0,0,0-4.93-.84,5.19,5.19,0,0,0-4.14,2.51c-1.15,2.2,0,4.86,1.15,7a83.14,83.14,0,0,0,7.2,11c2.16,2.79,4.63,5.53,7.92,6.79s6.7,1.11,8.45-1.17" style="fill:#6D7FCC"></path><path d="M637.14,406.46a6.68,6.68,0,0,0,.2-1.41c.1-1,.22-2.3.37-3.82a55.24,55.24,0,0,1,.86-5.62,43.45,43.45,0,0,1,2-6.62,24.63,24.63,0,0,1,3.38-6,12.61,12.61,0,0,1,4.28-3.55,12,12,0,0,1,3.6-1.13,6.65,6.65,0,0,0,1.4-.2,7.07,7.07,0,0,0-1.42,0,10.85,10.85,0,0,0-3.76,1,12.6,12.6,0,0,0-4.51,3.59,23.9,23.9,0,0,0-3.51,6.11,40.27,40.27,0,0,0-2,6.73,47.38,47.38,0,0,0-.75,5.69c-.12,1.62-.17,2.94-.19,3.85A6.62,6.62,0,0,0,637.14,406.46Z" style="fill:#263238"></path><path d="M637.4,403.51a2.32,2.32,0,0,0,0-.65V401c0-1.62,0-3.95.08-6.84.14-5.77.64-13.74,1.6-22.49s2.25-16.64,3.42-22.3c.27-1.41.55-2.69.81-3.8s.46-2.09.67-2.87.32-1.33.43-1.81a2.48,2.48,0,0,0,.12-.64,2.37,2.37,0,0,0-.23.61l-.54,1.78c-.24.78-.48,1.74-.76,2.85s-.6,2.38-.9,3.8a209.13,209.13,0,0,0-3.6,22.31c-1,8.78-1.39,16.77-1.43,22.55,0,2.9,0,5.24.1,6.86,0,.75.09,1.37.12,1.85A3,3,0,0,0,637.4,403.51Z" style="fill:#263238"></path><path d="M637.44,388.1a11.53,11.53,0,0,0,0-1.94,51.25,51.25,0,0,0-.6-5.27,72.64,72.64,0,0,0-4.92-16.75,48.19,48.19,0,0,0-9.42-14.67,23.68,23.68,0,0,0-2.22-2.06c-.34-.29-.64-.58-.94-.81s-.6-.4-.86-.59a13.23,13.23,0,0,0-1.64-1.05,58.3,58.3,0,0,1,5.36,4.79,50.79,50.79,0,0,1,9.19,14.62,71.91,71.91,0,0,1,3.23,9c.84,2.82,1.4,5.42,1.82,7.6s.63,4,.77,5.21A13.23,13.23,0,0,0,637.44,388.1Z" style="fill:#263238"></path></g><g id="freepik--Pictures--inject-63"><polygon points="664.57 190.52 608.08 191.69 609.6 265.35 666.12 265.6 664.57 190.52" style="fill:#6D7FCC"></polygon><polygon points="660.91 193.22 611.48 194.24 612.86 261.05 662.32 261.69 660.91 193.22" style="fill:#fafafa"></polygon><polygon points="652.5 205.54 619.68 204.97 620.64 251.66 653.44 250.98 652.5 205.54" style="fill:#263238"></polygon><polygon points="620.64 251.66 652.95 226.99 619.68 204.97 620.64 251.66" style="fill:#455a64"></polygon><polygon points="645.34 129.47 606.55 130.27 607.6 180.85 646.4 181.02 645.34 129.47" style="fill:#455a64"></polygon><polygon points="642.83 131.32 608.88 132.02 609.83 177.89 643.79 178.34 642.83 131.32" style="fill:#fafafa"></polygon><polygon points="637.05 139.78 614.51 139.38 615.17 171.45 637.7 170.98 637.05 139.78" style="fill:#6D7FCC"></polygon><path d="M629.63,155s.14-.36.26-1a4.22,4.22,0,0,0-.38-2.71,4.07,4.07,0,1,0-3,5.82A4.28,4.28,0,0,0,629,155.8c.46-.49.63-.83.67-.81a2.13,2.13,0,0,1-.52.94,4.24,4.24,0,0,1-2.51,1.51,4.45,4.45,0,0,1-4.11-1.31,4.52,4.52,0,0,1,3.88-7.59,4.46,4.46,0,0,1,3.47,2.56,4.29,4.29,0,0,1,.25,2.92A2.33,2.33,0,0,1,629.63,155Z" style="fill:#263238"></path><path d="M631.52,164a15.67,15.67,0,0,1-2.2-3.4,15.75,15.75,0,0,1-1.73-3.65,16.33,16.33,0,0,1,2.19,3.4A16.6,16.6,0,0,1,631.52,164Z" style="fill:#263238"></path></g><g id="freepik--Floor--inject-63"><path d="M665.62,404.68c0,.15-126.52.26-282.56.26s-282.59-.11-282.59-.26,126.5-.26,282.59-.26S665.62,404.54,665.62,404.68Z" style="fill:#263238"></path></g></svg>
